<svg xmlns="http://www.w3.org/2000/svg" width="149.163" height="123.73" viewBox="0 0 149.163 123.73"><g transform="translate(-1.84 -13.591)"><g transform="translate(1.84 62.947)"><path d="M42.594,136a3,3,0,0,1-.925-.206,1.638,1.638,0,0,1-.925-1.233l-2.055-7.09a25.745,25.745,0,0,1-5.652-.617l-3.6,6.576a2.022,2.022,0,0,1-2.672.822l-10.892-5.96a2.022,2.022,0,0,1-.822-2.672l3.6-6.576a29.4,29.4,0,0,1-3.6-4.419l-7.09,2.158a2.053,2.053,0,0,1-1.541-.206,1.638,1.638,0,0,1-.925-1.233L1.9,103.319a2.053,2.053,0,0,1,.206-1.541,1.638,1.638,0,0,1,1.233-.925l7.09-2.158a25.51,25.51,0,0,1,.617-5.549L4.471,89.652a1.638,1.638,0,0,1-.925-1.233,2.053,2.053,0,0,1,.206-1.541l5.96-11a2.022,2.022,0,0,1,2.672-.822l6.576,3.6a25.028,25.028,0,0,1,4.419-3.6l-2.158-7.3A2.013,2.013,0,0,1,22.556,65.3l12.023-3.6a2.013,2.013,0,0,1,2.466,1.336l2.158,7.3a26.443,26.443,0,0,1,5.652.617l3.494-6.576a1.638,1.638,0,0,1,1.233-.925,2.053,2.053,0,0,1,1.541.206L61.6,69.614a1.638,1.638,0,0,1,.925,1.233,2.054,2.054,0,0,1-.206,1.541l-3.6,6.576a27.928,27.928,0,0,1,3.494,4.316l7.193-2.158a2.054,2.054,0,0,1,1.541.206,1.638,1.638,0,0,1,.925,1.233l3.6,12.023a2.053,2.053,0,0,1-.206,1.541,1.638,1.638,0,0,1-1.233.925l-7.193,2.158a25.744,25.744,0,0,1-.617,5.652l6.679,3.6a2.022,2.022,0,0,1,.822,2.672l-5.96,10.892a1.638,1.638,0,0,1-1.233.925,2.053,2.053,0,0,1-1.541-.206l-6.576-3.6a28.626,28.626,0,0,1-4.316,3.6l2.363,7.09A2.013,2.013,0,0,1,55.13,132.3l-12.023,3.6A1.117,1.117,0,0,1,42.594,136Zm-2.569-12.536a2.1,2.1,0,0,1,1.952,1.439l1.952,6.679,8.118-2.466-1.952-6.679a1.835,1.835,0,0,1,.925-2.261,25.726,25.726,0,0,0,5.857-4.727,2.029,2.029,0,0,1,2.466-.411l6.165,3.391,4.008-7.4-6.268-3.391a1.835,1.835,0,0,1-.925-2.261,25.875,25.875,0,0,0,.822-7.5,2.1,2.1,0,0,1,1.439-2.055l6.782-1.952L68.8,85.542,62.015,87.6a1.835,1.835,0,0,1-2.261-.925,25.727,25.727,0,0,0-4.727-5.857,2.029,2.029,0,0,1-.411-2.466l3.391-6.165-7.5-4.008-3.288,6.165a2.005,2.005,0,0,1-2.261,1.028,26.274,26.274,0,0,0-7.5-.822A1.978,1.978,0,0,1,35.4,73.108l-2.055-6.885L25.228,68.69l2.055,6.782a1.835,1.835,0,0,1-.925,2.261A21.941,21.941,0,0,0,20.5,82.459a2.029,2.029,0,0,1-2.466.411l-6.165-3.391-4.008,7.4,6.165,3.288a2.005,2.005,0,0,1,1.028,2.261,26.68,26.68,0,0,0-.822,7.5,2.1,2.1,0,0,1-1.439,2.055l-6.782,2.158,2.466,8.118,6.679-1.952a1.95,1.95,0,0,1,2.261.925,27.278,27.278,0,0,0,4.83,5.96,2.029,2.029,0,0,1,.411,2.466l-3.391,6.165,7.4,4.008,3.391-6.165a1.835,1.835,0,0,1,2.261-.925,26.274,26.274,0,0,0,7.5.822C39.922,123.459,39.922,123.459,40.025,123.459Z" transform="translate(-1.84 -61.623)"/><path d="M38.183,116.365A17.983,17.983,0,1,1,56.165,98.383,18,18,0,0,1,38.183,116.365Zm0-31.958A13.975,13.975,0,1,0,52.158,98.383,13.99,13.99,0,0,0,38.183,84.408Z" transform="translate(-1.334 -61.105)"/></g><g transform="translate(49.965 13.591)"><path d="M77.781,68.267h-.206l-8.94-1.028A2.149,2.149,0,0,1,67.3,66.52a1.841,1.841,0,0,1-.411-1.439l.514-4.932a27.68,27.68,0,0,1-2.98-1.644l-3.9,3.083A1.842,1.842,0,0,1,59.079,62a2.149,2.149,0,0,1-1.336-.719l-5.652-6.988a1.962,1.962,0,0,1,.308-2.774l3.9-3.185a17.276,17.276,0,0,1-.925-3.288l-4.932-.514a2.149,2.149,0,0,1-1.336-.719,1.841,1.841,0,0,1-.411-1.439l1.028-8.94a2.149,2.149,0,0,1,.719-1.336,1.841,1.841,0,0,1,1.439-.411l4.932.514a16,16,0,0,1,1.644-2.877l-3.083-3.8a1.841,1.841,0,0,1-.411-1.439,2.149,2.149,0,0,1,.719-1.336l6.988-5.652a1.962,1.962,0,0,1,2.774.308l3.083,3.9a17.276,17.276,0,0,1,3.288-.925l.514-5.035A1.957,1.957,0,0,1,74.493,13.6l8.94,1.028a1.957,1.957,0,0,1,1.747,2.158l-.514,5.035a21.482,21.482,0,0,1,2.98,1.644l3.9-3.083a1.841,1.841,0,0,1,1.439-.411,2.149,2.149,0,0,1,1.336.719l5.652,6.988a1.841,1.841,0,0,1,.411,1.439,2.149,2.149,0,0,1-.719,1.336l-3.9,3.083a18.617,18.617,0,0,1,.925,3.185l5.035.514a2.149,2.149,0,0,1,1.336.719,1.841,1.841,0,0,1,.411,1.439l-1.028,8.94a2.149,2.149,0,0,1-.719,1.336,1.841,1.841,0,0,1-1.439.411l-5.035-.514a27.678,27.678,0,0,1-1.644,2.98l3.185,4.008a1.962,1.962,0,0,1-.308,2.774L89.5,64.979a2.359,2.359,0,0,1-1.439.411,2.149,2.149,0,0,1-1.336-.719l-3.083-3.9a18.616,18.616,0,0,1-3.185.925l-.617,4.83A2.09,2.09,0,0,1,77.781,68.267ZM71,63.54l5.035.514.514-4.419a1.968,1.968,0,0,1,1.747-1.747A16.707,16.707,0,0,0,83.33,56.45a1.885,1.885,0,0,1,2.363.514l2.774,3.494,3.9-3.083-2.877-3.6a1.875,1.875,0,0,1,0-2.466,18.418,18.418,0,0,0,2.569-4.624,2.1,2.1,0,0,1,2.055-1.336l4.521.514.514-5.035-4.521-.514a1.968,1.968,0,0,1-1.747-1.747,17.6,17.6,0,0,0-1.439-5.035,1.917,1.917,0,0,1,.617-2.363L95.558,28.4l-3.083-3.9L89.084,27.37a1.875,1.875,0,0,1-2.466,0A17.093,17.093,0,0,0,81.994,24.8a2.01,2.01,0,0,1-1.336-2.055l.514-4.521-5.035-.514-.514,4.521a1.968,1.968,0,0,1-1.747,1.747,18.26,18.26,0,0,0-5.138,1.439,1.885,1.885,0,0,1-2.363-.514L63.6,21.41l-3.9,3.083,2.774,3.494a1.875,1.875,0,0,1,0,2.466A17.093,17.093,0,0,0,59.9,35.077a2.01,2.01,0,0,1-2.055,1.336L53.428,35.9l-.514,5.035,4.419.514a1.968,1.968,0,0,1,1.747,1.747,18.26,18.26,0,0,0,1.439,5.138A1.885,1.885,0,0,1,60,50.7L56.51,53.573l3.083,3.9L63.087,54.7a1.875,1.875,0,0,1,2.466,0,17.093,17.093,0,0,0,4.624,2.569,2.01,2.01,0,0,1,1.336,2.055Z" transform="translate(-48.674 -13.591)"/><path d="M75.763,54.027A13.237,13.237,0,0,1,70.522,53a13.893,13.893,0,0,1-7.3-7.4,13.463,13.463,0,0,1,.1-10.379,13.893,13.893,0,0,1,7.4-7.3A13.548,13.548,0,0,1,88.3,45.7,13.893,13.893,0,0,1,80.9,53,13.469,13.469,0,0,1,75.763,54.027Zm0-23.018a8.656,8.656,0,0,0-3.6.719,9.513,9.513,0,0,0-5.138,12.434,9.513,9.513,0,0,0,17.572,0,9.438,9.438,0,0,0-5.035-12.434A10.352,10.352,0,0,0,75.763,31.009Z" transform="translate(-48.3 -13.222)"/></g><path d="M114.918,75.4H67.752A1.951,1.951,0,0,1,65.8,73.452,2.021,2.021,0,0,1,67.752,71.5h47.166a1.952,1.952,0,1,1,0,3.9Z" transform="translate(1.764 1.597)"/><path d="M125.138,75.4h-3.185A1.951,1.951,0,0,1,120,73.452a2.021,2.021,0,0,1,1.952-1.952h3.185a1.952,1.952,0,1,1,0,3.9Z" transform="translate(3.258 1.597)"/><path d="M135.938,75.4h-3.186a1.951,1.951,0,0,1-1.952-1.952,2.021,2.021,0,0,1,1.952-1.952h3.186a1.952,1.952,0,0,1,0,3.9Z" transform="translate(3.556 1.597)"/><path d="M134.915,87.4H87.852a1.952,1.952,0,0,1,0-3.9h47.166a1.951,1.951,0,0,1,1.952,1.952A1.976,1.976,0,0,1,134.915,87.4Z" transform="translate(2.318 1.928)"/><path d="M145.238,87.4h-3.185a1.952,1.952,0,0,1,0-3.9h3.185a1.952,1.952,0,0,1,0,3.9Z" transform="translate(3.813 1.928)"/></g></svg>