<svg xmlns="http://www.w3.org/2000/svg" width="110.127" height="118.085" viewBox="0 0 110.127 118.085"><g transform="translate(-19.61 -18.965)"><g transform="translate(19.61 18.965)"><g transform="translate(3.365)"><path d="M111.105,55.881h0c-3.27-.316-6.33-5.908-5.8-12.87.633-7.068,4.642-12.026,7.912-11.71s6.33,5.908,5.8,12.87c-.633,6.857-4.431,11.71-7.7,11.71Zm.527-3.9Zm-2.321-8.651c-.422,4.958,1.371,7.807,2.11,8.545.844-.527,3.165-2.954,3.587-8.018.422-4.958-1.371-7.807-2.11-8.545C112.055,35.837,109.839,38.263,109.312,43.327Z" transform="translate(-18.269 -18.288)"/><path d="M115.108,62.466,33.982,55.4c-3.587-.316-6.646-2.637-8.756-6.435a23.324,23.324,0,0,1-2.321-12.87C23.75,25.859,30.079,18.369,37.253,19h0l81.125,7.068c3.587.316,6.646,2.637,8.756,6.435a23.324,23.324,0,0,1,2.321,12.87,22.89,22.89,0,0,1-4.536,12.237c-2.532,3.165-5.7,4.853-8.862,4.853ZM36.831,22.905c-4.642-.422-9.283,5.7-10.022,13.4a18.972,18.972,0,0,0,1.9,10.549c1.477,2.637,3.376,4.22,5.591,4.325l81.125,7.068c2.215.211,4.431-.949,6.224-3.376a18.853,18.853,0,0,0,3.692-10.127,18.972,18.972,0,0,0-1.9-10.549c-1.477-2.637-3.376-4.22-5.591-4.325l-81.02-6.963Z" transform="translate(-22.799 -18.965)"/></g><path d="M107.805,93.581c-3.27-.316-6.33-5.908-5.8-12.87a18.565,18.565,0,0,1,2.743-8.334c1.582-2.321,3.376-3.481,5.169-3.376,1.688.105,3.376,1.688,4.431,4.22a16.908,16.908,0,0,1,1.266,8.756,18.565,18.565,0,0,1-2.743,8.334c-1.477,2.11-3.27,3.376-4.853,3.376C108.016,93.581,107.911,93.581,107.805,93.581Zm.527-3.9Zm-.316-.105Zm-2-8.545c-.422,4.958,1.371,7.912,2.11,8.545.844-.527,3.165-2.954,3.587-8.018.422-4.958-1.371-7.807-2.11-8.545C108.755,73.537,106.539,75.963,106.012,81.027Z" transform="translate(-15.086 -16.216)"/><path d="M39.538,93.836a1.965,1.965,0,0,0,2-1.793,2.087,2.087,0,0,0-1.793-2.215L31.1,89.089c-4.747-.422-8.123-7.279-7.49-14.98s5.275-13.82,10.022-13.4l7.279.633a2.015,2.015,0,0,0,.422-4.009L34.052,56.7c-7.068-.633-13.4,6.857-14.347,17.09C18.861,84.025,23.714,92.465,30.782,93.1l8.651.738C39.432,93.73,39.538,93.836,39.538,93.836Z" transform="translate(-19.61 -16.893)"/><path d="M108.465,99.845c6.752,0,12.659-7.279,13.5-17.09.844-10.233-4.009-18.673-11.077-19.305l-10.76-.949a2.015,2.015,0,1,0-.422,4.009l10.76.949c4.747.422,8.123,7.279,7.49,14.98s-5.275,13.925-10.022,13.4l-10.022-.844A2.015,2.015,0,1,0,97.494,99l10.022.844Z" transform="translate(-15.43 -16.573)"/><g transform="translate(22.946 41.8)"><path d="M92.25,134.768,43.2,130.442a2.261,2.261,0,0,1-1.582-.949,2.362,2.362,0,0,1-.105-1.9c4.853-10.338,3.481-21.2,1.9-32.809S40.242,71.26,45.727,59.761a1.984,1.984,0,0,1,2-1.16l49.16,4.431a2.261,2.261,0,0,1,1.582.949,2.362,2.362,0,0,1,.105,1.9c-4.853,10.338-3.481,21.2-1.9,32.809s3.165,23.525-2.321,35.024a1.95,1.95,0,0,1-1.793,1.16A.388.388,0,0,1,92.25,134.768ZM48.892,62.926c-4.22,10.022-2.848,20.466-1.371,31.543,1.371,10.76,2.848,21.732-1.16,32.387l44.941,3.9c4.22-10.022,2.848-20.466,1.371-31.543-1.371-10.76-2.848-21.732,1.16-32.387Z" transform="translate(-41.361 -58.587)"/><path d="M84.182,87.651,71.1,86.491a1.946,1.946,0,0,1-1.793-1.9,55.566,55.566,0,0,1,.633-13.609A1.947,1.947,0,0,1,72.05,69.4l13.081,1.16A1.8,1.8,0,0,1,86.5,71.3a2.137,2.137,0,0,1,.422,1.582,48.181,48.181,0,0,0-.633,12.659,2.326,2.326,0,0,1-.633,1.582,2.222,2.222,0,0,1-1.371.527Zm-12.87-3.165Zm2.321-10.971a50.59,50.59,0,0,0-.422,9.178l9.073.844a51.072,51.072,0,0,1,.422-9.178Z" transform="translate(-39.833 -57.994)"/><path d="M82.944,96.236a1.965,1.965,0,0,0,2-1.793,2.087,2.087,0,0,0-1.793-2.215L55.516,89.8a2.015,2.015,0,1,0-.422,4.009l27.64,2.426Z" transform="translate(-40.705 -56.873)"/><path d="M83.944,104.436a1.965,1.965,0,0,0,2-1.793,2.087,2.087,0,0,0-1.793-2.215L56.516,98a2.015,2.015,0,1,0-.422,4.009l27.64,2.426Z" transform="translate(-40.65 -56.422)"/><path d="M84.544,112.636a1.965,1.965,0,0,0,2-1.793,2.087,2.087,0,0,0-1.793-2.215L57.116,106.2a2.015,2.015,0,1,0-.422,4.009l27.64,2.426Z" transform="translate(-40.617 -55.972)"/><path d="M84.044,120.636a1.965,1.965,0,0,0,2-1.793,2.087,2.087,0,0,0-1.793-2.215L56.616,114.2a2.015,2.015,0,0,0-.422,4.009l27.64,2.426Z" transform="translate(-40.645 -55.532)"/><path d="M62.534,82.875l-8.44-.738a1.94,1.94,0,0,1-1.793-1.9,48.509,48.509,0,0,1,.844-10.655A1.947,1.947,0,0,1,55.255,68l8.44.738a1.8,1.8,0,0,1,1.371.738,2.137,2.137,0,0,1,.422,1.582,47.576,47.576,0,0,0-.738,9.811,1.915,1.915,0,0,1-.633,1.477,2.222,2.222,0,0,1-1.371.527ZM54.2,80.132Zm2.426-8.123a39.839,39.839,0,0,0-.422,6.33l4.431.422a59.746,59.746,0,0,1,.422-6.33Z" transform="translate(-40.761 -58.071)"/></g></g></g></svg>