<svg xmlns="http://www.w3.org/2000/svg" width="117.839" height="111.155" viewBox="0 0 117.839 111.155"><g transform="translate(-6 -17.6)"><g transform="translate(6 41.344)"><path d="M68.525,132.012H7.935A1.952,1.952,0,0,1,6,130.077V46.535A1.952,1.952,0,0,1,7.935,44.6h60.59a1.952,1.952,0,0,1,1.935,1.935v83.542A1.952,1.952,0,0,1,68.525,132.012ZM9.869,128.142H66.678V48.469H9.869Z" transform="translate(-6 -44.6)"/><path d="M34.416,77.05H18.235A1.952,1.952,0,0,1,16.3,75.116V58.935A1.952,1.952,0,0,1,18.235,57H34.416a1.952,1.952,0,0,1,1.935,1.935V75.116A1.952,1.952,0,0,1,34.416,77.05ZM20.169,73.181H32.481V60.869H20.169Z" transform="translate(-7.242 -46.096)"/><path d="M57.155,93.169H23.035a1.935,1.935,0,1,1,0-3.869H57.155a1.952,1.952,0,0,1,1.935,1.935A2.013,2.013,0,0,1,57.155,93.169Z" transform="translate(-7.821 -49.991)"/><path d="M57.155,105.069H23.035a1.935,1.935,0,1,1,0-3.869H57.155a1.952,1.952,0,0,1,1.935,1.935A2.012,2.012,0,0,1,57.155,105.069Z" transform="translate(-7.821 -51.426)"/><path d="M57.155,116.969H23.035a1.935,1.935,0,1,1,0-3.869H57.155a1.952,1.952,0,0,1,1.935,1.935A2.013,2.013,0,0,1,57.155,116.969Z" transform="translate(-7.821 -52.861)"/><path d="M57.155,128.869H23.035a1.935,1.935,0,1,1,0-3.869H57.155a1.935,1.935,0,1,1,0,3.869Z" transform="translate(-7.821 -54.297)"/></g><path d="M79.141,38.6H17.935A1.952,1.952,0,0,0,16,40.535h0a1.952,1.952,0,0,0,1.935,1.935H77.206V122.23H74.392a2,2,0,0,0-2.023,1.759A1.941,1.941,0,0,0,74.3,126.1h4.837a1.952,1.952,0,0,0,1.935-1.935V40.623A1.972,1.972,0,0,0,79.141,38.6Z" transform="translate(-1.206 -2.533)"/><path d="M90.141,33.6H28.935A1.952,1.952,0,0,0,27,35.535h0a1.952,1.952,0,0,0,1.935,1.935H88.206V117.23H85.392a2,2,0,0,0-2.023,1.759A1.941,1.941,0,0,0,85.3,121.1h4.837a1.952,1.952,0,0,0,1.935-1.935V35.623A1.972,1.972,0,0,0,90.141,33.6Z" transform="translate(-2.533 -1.93)"/><path d="M101.141,28.6H39.935A1.952,1.952,0,0,0,38,30.535h0a1.952,1.952,0,0,0,1.935,1.935H99.206V112.23H96.392a2,2,0,0,0-2.023,1.759A1.941,1.941,0,0,0,96.3,116.1h4.837a1.952,1.952,0,0,0,1.935-1.935V30.623A1.972,1.972,0,0,0,101.141,28.6Z" transform="translate(-3.859 -1.327)"/><path d="M111.141,24.6H49.935A1.952,1.952,0,0,0,48,26.535h0a1.952,1.952,0,0,0,1.935,1.935h59.271V108.23h-2.814a2,2,0,0,0-2.023,1.759A1.941,1.941,0,0,0,106.3,112.1h4.837a1.952,1.952,0,0,0,1.935-1.935V26.623A1.972,1.972,0,0,0,111.141,24.6Z" transform="translate(-5.065 -0.844)"/><path d="M120.141,20.6H58.935A1.952,1.952,0,0,0,57,22.535h0a1.952,1.952,0,0,0,1.935,1.935h59.271V104.23h-2.814a2,2,0,0,0-2.023,1.759A1.941,1.941,0,0,0,115.3,108.1h4.837a1.952,1.952,0,0,0,1.935-1.935V22.623A1.972,1.972,0,0,0,120.141,20.6Z" transform="translate(-6.151 -0.362)"/><path d="M129.141,17.6H67.935A1.952,1.952,0,0,0,66,19.535h0a1.952,1.952,0,0,0,1.935,1.935h59.271V101.23h-2.814a2,2,0,0,0-2.023,1.759A1.941,1.941,0,0,0,124.3,105.1h4.837a1.952,1.952,0,0,0,1.935-1.935V19.623A1.972,1.972,0,0,0,129.141,17.6Z" transform="translate(-7.236)"/></g></svg>