<svg xmlns="http://www.w3.org/2000/svg" xmlns:xlink="http://www.w3.org/1999/xlink" width="35" height="35" viewBox="0 0 35 35"><defs><style>.a,.c{fill:#fff;}.a{stroke:#fff;}.b{clip-path:url(#a);}</style><clipPath id="a"><rect class="a" width="35" height="35" transform="translate(415.724 1443)"/></clipPath></defs><g class="b" transform="translate(-415.724 -1443)"><g transform="translate(416 1449.649)"><g transform="translate(0 0)"><path class="c" d="M35.483,5.582H1.794a.505.505,0,0,1-.517-.517V3.07a.505.505,0,0,1,.517-.517h33.69A.505.505,0,0,1,36,3.07V5.065A.505.505,0,0,1,35.483,5.582Z" transform="translate(-1.277 -2.553)"/></g><g transform="translate(0 9.235)"><path class="c" d="M25.879,21.54H1.794a.505.505,0,0,1-.517-.517V19.028a.505.505,0,0,1,.517-.517H25.879a.505.505,0,0,1,.517.517v1.995A.505.505,0,0,1,25.879,21.54Z" transform="translate(-1.277 -18.511)"/></g><g transform="translate(0 18.396)"><path class="c" d="M7.409,37.37H1.794a.505.505,0,0,1-.517-.517V34.858a.505.505,0,0,1,.517-.517H7.409a.505.505,0,0,1,.517.517v1.995A.505.505,0,0,1,7.409,37.37Z" transform="translate(-1.277 -34.34)"/></g><g transform="translate(8.866 18.396)"><path class="c" d="M19.034,37.37H17.113a.505.505,0,0,1-.517-.517V34.858a.505.505,0,0,1,.517-.517h1.921a.505.505,0,0,1,.517.517v1.995A.505.505,0,0,1,19.034,37.37Z" transform="translate(-16.596 -34.34)"/></g></g></g></svg>