<svg xmlns="http://www.w3.org/2000/svg" width="31.474" height="27.818" viewBox="0 0 31.474 27.818"><defs><style>.a{fill:none;stroke:#fff;stroke-linecap:round;stroke-linejoin:round;stroke-width:1.417px;}</style></defs><g transform="translate(-6.891 -6.891)"><path class="a" d="M29.273,22.584h2.141a7.534,7.534,0,0,0,3.122,2.765,4.223,4.223,0,0,1,.178-2.765h3.122c.8,0,.892-.357.892-1.159V8.759c0-.8-.178-1.159-1.07-1.159h-19c-.8,0-1.159.357-1.159,1.159v6.6" transform="translate(-1.07)"/><path class="a" d="M27.043,16.5c.8,0,1.07.446,1.07,1.249V30.414c0,.892-.178,1.249-1.07,1.249h-12.4a4.784,4.784,0,0,1-3.657,3.3,6.88,6.88,0,0,0,.714-3.3H8.67c-.8,0-1.07-.357-1.07-1.249V17.838c0-.892.268-1.338,1.07-1.338Z" transform="translate(0 -0.962)"/></g></svg>