<svg xmlns="http://www.w3.org/2000/svg" width="113.112" height="113.112" viewBox="0 0 113.112 113.112"><g transform="translate(-11.5 -11)"><g transform="translate(11.5 31.419)"><g transform="translate(0 0)"><path d="M22.247,71.414a3.587,3.587,0,0,1-2.6-1.075l-7.075-7.075a3.676,3.676,0,0,1,0-5.194l23.2-23.2a3.676,3.676,0,0,1,5.194,0L48.04,41.95a3.676,3.676,0,0,1,0,5.194l-23.2,23.2A3.587,3.587,0,0,1,22.247,71.414ZM38.367,37.2c-.09,0-.09,0-.179.09l-23.2,23.2a.272.272,0,0,0,0,.358l7.075,7.075a.272.272,0,0,0,.358,0l23.2-23.2c.09-.09.09-.09.09-.179s0-.09-.09-.179h0l-7.075-7.075C38.547,37.2,38.457,37.2,38.367,37.2Z" transform="translate(-11.5 -33.8)"/><g transform="translate(21.292 8.486)"><path d="M37,50.641a1.768,1.768,0,0,1-1.254-.537,1.79,1.79,0,0,1,0-2.418l3.941-3.941A1.71,1.71,0,1,1,42.1,46.163L38.163,50.1A1.444,1.444,0,0,1,37,50.641Z" transform="translate(-35.275 -43.275)"/></g></g><g transform="translate(75.498)"><path d="M122.667,71.414a3.587,3.587,0,0,1-2.6-1.075l-23.2-23.2a3.676,3.676,0,0,1,0-5.194l7.075-7.075a3.676,3.676,0,0,1,5.194,0l23.2,23.2a3.676,3.676,0,0,1,0,5.194l-7.075,7.075A3.587,3.587,0,0,1,122.667,71.414ZM106.547,37.2c-.09,0-.09,0-.179.09l-7.075,7.075c-.09.09-.09.09-.09.179s0,.09.09.179l23.2,23.2a.272.272,0,0,0,.358,0l7.075-7.075c.09-.09.09-.09.09-.179s0-.09-.09-.179l-23.2-23.2C106.726,37.2,106.637,37.2,106.547,37.2Z" transform="translate(-95.8 -33.8)"/><g transform="translate(9.023 8.486)"><path d="M111.54,50.641a1.768,1.768,0,0,1-1.254-.537l-3.941-3.941a1.71,1.71,0,1,1,2.418-2.418l3.941,3.941a1.79,1.79,0,0,1,0,2.418A1.734,1.734,0,0,1,111.54,50.641Z" transform="translate(-105.875 -43.275)"/></g></g><g transform="translate(32.957 9.863)"><path d="M99.706,82.416,74.63,60.026l-9.583,5.732a9.651,9.651,0,0,1-11.463,1.7L48.3,64.683,56,53.041a8.8,8.8,0,0,1,3.314-2.955L68.092,45.7a8.494,8.494,0,0,1,6.448-.448l13.523,4.478,3.851-3.851a1.71,1.71,0,1,1,2.418,2.418l-5.373,5.373-15.494-5.1a4.809,4.809,0,0,0-3.851.269L60.838,53.22a5.14,5.14,0,0,0-1.97,1.7L53.226,63.43l1.881.985a6.252,6.252,0,0,0,7.523-1.254l.358-.269L74.9,55.817,99.706,77.938l13.344-11.105a1.72,1.72,0,1,1,2.149,2.687Z" transform="translate(-48.3 -44.813)"/></g><g transform="translate(33.651 10.456)"><path d="M63.516,51.766H52.948l-3.4-3.4a1.71,1.71,0,0,1,2.418-2.418l2.418,2.418h9.135a1.7,1.7,0,1,1,0,3.4Z" transform="translate(-49.075 -45.475)"/></g><g transform="translate(11.978 32.129)"><path d="M37.077,83.668a1.768,1.768,0,0,1-1.254-.537L25.345,72.563a1.71,1.71,0,1,1,2.418-2.418L38.331,80.713a1.79,1.79,0,0,1,0,2.418A1.768,1.768,0,0,1,37.077,83.668Z" transform="translate(-24.875 -69.675)"/></g><g transform="translate(19.703 40.839)"><path d="M39.053,93.819a5.557,5.557,0,0,1-3.941-1.612,5.622,5.622,0,0,1,0-7.881l3.314-3.314a5.622,5.622,0,0,1,7.881,0h0a5.622,5.622,0,0,1,0,7.881l-3.314,3.314A5.557,5.557,0,0,1,39.053,93.819ZM42.366,82.8a2.1,2.1,0,0,0-1.522.627L37.53,86.744A2.09,2.09,0,1,0,40.486,89.7L43.8,86.386A2.106,2.106,0,0,0,42.366,82.8Z" transform="translate(-33.5 -79.4)"/></g><g transform="translate(23.375 43.592)"><path d="M43.153,101.394A5.573,5.573,0,0,1,39.212,91.9l7.881-7.881a5.8,5.8,0,0,1,7.881,0h0a5.622,5.622,0,0,1,0,7.881l-7.881,7.881A5.408,5.408,0,0,1,43.153,101.394ZM51.034,85.9a2.1,2.1,0,0,0-1.522.627L41.63,94.409A2.161,2.161,0,0,0,41,95.931a2.1,2.1,0,0,0,3.582,1.522l7.881-7.881a2.161,2.161,0,0,0,.627-1.522,2.1,2.1,0,0,0-.627-1.522h0A1.782,1.782,0,0,0,51.034,85.9Z" transform="translate(-37.6 -82.475)"/></g><g transform="translate(47.891 55.504)"><path d="M77.894,112.545a6.238,6.238,0,0,1-4.388-1.791l-8.06-8.06a1.71,1.71,0,0,1,2.418-2.418l8.06,8.06a2.723,2.723,0,1,0,3.851-3.851l-5.821-5.821a1.71,1.71,0,0,1,2.418-2.418l5.821,5.821a6.108,6.108,0,0,1,0,8.687A5.882,5.882,0,0,1,77.894,112.545Z" transform="translate(-64.975 -95.775)"/></g><g transform="translate(63.653 56.22)"><path d="M87.434,107.613a6.238,6.238,0,0,1-4.388-1.791,1.71,1.71,0,0,1,2.418-2.418,2.7,2.7,0,0,0,3.851,0,2.633,2.633,0,0,0,.806-1.97,2.778,2.778,0,0,0-.806-1.97,1.71,1.71,0,0,1,2.418-2.418,6.108,6.108,0,0,1,0,8.687A5.636,5.636,0,0,1,87.434,107.613Z" transform="translate(-82.575 -96.575)"/></g><g transform="translate(63.564 43.413)"><path d="M96.468,102.448a6.238,6.238,0,0,1-4.388-1.791l-9.135-9.135A1.71,1.71,0,0,1,85.363,89.1L94.5,98.239a2.7,2.7,0,0,0,3.851,0,2.633,2.633,0,0,0,.806-1.97,2.778,2.778,0,0,0-.806-1.97l-9.135-9.135a1.71,1.71,0,0,1,2.418-2.418l9.135,9.135a6.108,6.108,0,0,1,0,8.687A5.774,5.774,0,0,1,96.468,102.448Z" transform="translate(-82.475 -82.275)"/></g><g transform="translate(76.371 43.503)"><path d="M101.634,93.413a6.4,6.4,0,0,1-4.388-1.791A1.71,1.71,0,0,1,99.663,89.2a2.7,2.7,0,0,0,3.851,0,2.633,2.633,0,0,0,.806-1.97,2.778,2.778,0,0,0-.806-1.97,1.71,1.71,0,0,1,2.418-2.418,6.086,6.086,0,0,1,1.791,4.388,6.238,6.238,0,0,1-1.791,4.388A6.031,6.031,0,0,1,101.634,93.413Z" transform="translate(-96.775 -82.375)"/></g><g transform="translate(30.718 50.22)"><path d="M51.353,105.839a5.573,5.573,0,0,1-3.941-9.493l4.926-4.926a5.8,5.8,0,0,1,7.881,0h0a5.622,5.622,0,0,1,0,7.881l-4.926,4.926A5.557,5.557,0,0,1,51.353,105.839Zm4.926-12.628a2.1,2.1,0,0,0-1.522.627L49.83,98.764a2.161,2.161,0,0,0-.627,1.522,2.1,2.1,0,0,0,3.582,1.522l4.926-4.926a2.108,2.108,0,0,0,0-2.955A1.87,1.87,0,0,0,56.278,93.211Z" transform="translate(-45.8 -89.875)"/></g><g transform="translate(36.988 56.422)"><path d="M58.353,111.219a5.408,5.408,0,0,1-3.941-1.612,5.622,5.622,0,0,1,0-7.881l3.314-3.314a5.622,5.622,0,0,1,7.881,0h0a5.622,5.622,0,0,1,0,7.881l-3.314,3.314A5.408,5.408,0,0,1,58.353,111.219Zm3.314-10.926a2.1,2.1,0,0,0-1.522.627l-3.314,3.314a2.09,2.09,0,0,0,2.955,2.955l3.314-3.314a2.108,2.108,0,0,0,0-2.955A1.782,1.782,0,0,0,61.666,100.293Z" transform="translate(-52.8 -96.8)"/></g></g><g transform="translate(47.749 20.851)"><g transform="translate(18.561 0)"><path d="M74.4,34.538a1.7,1.7,0,0,1-1.7-1.7V23.7a1.7,1.7,0,0,1,3.4,0v9.135A1.7,1.7,0,0,1,74.4,34.538Z" transform="translate(-72.7 -22)"/></g><g transform="translate(30.718 7.5)"><path d="M88,40.249a1.768,1.768,0,0,1-1.254-.537,1.79,1.79,0,0,1,0-2.418l6.448-6.448a1.71,1.71,0,0,1,2.418,2.418l-6.448,6.448A1.444,1.444,0,0,1,88,40.249Z" transform="translate(-86.275 -30.375)"/></g><g transform="translate(0 7.948)"><path d="M60.147,40.749a1.768,1.768,0,0,1-1.254-.537l-6.448-6.448a1.71,1.71,0,0,1,2.418-2.418l6.448,6.448a1.79,1.79,0,0,1,0,2.418A1.444,1.444,0,0,1,60.147,40.749Z" transform="translate(-51.975 -30.875)"/></g></g><g transform="translate(11.761 11)"><g transform="translate(8.146)"><path d="M115.383,40.017a1.614,1.614,0,0,1-1.433-.806,53.142,53.142,0,0,0-89.916,0,1.69,1.69,0,1,1-2.866-1.791,56.627,56.627,0,0,1,95.738-.09,1.63,1.63,0,0,1-.537,2.329A1.492,1.492,0,0,1,115.383,40.017Z" transform="translate(-20.888 -11)"/></g><g transform="translate(0 59.816)"><path d="M68.131,131.086A56.294,56.294,0,0,1,11.8,79.68,1.717,1.717,0,0,1,13.322,77.8,1.772,1.772,0,0,1,15.2,79.321a53.154,53.154,0,0,0,105.858,0,1.711,1.711,0,0,1,3.4.358A56.357,56.357,0,0,1,68.131,131.086Z" transform="translate(-11.792 -77.791)"/></g></g></g></svg>